<svg width="18" height="23" viewBox="0 0 18 23" fill="none" xmlns="http://www.w3.org/2000/svg">
<path d="M17.2355 10.4087C16.7391 9.28547 16.0175 8.2773 15.1159 7.44728L14.3719 6.7609C14.3466 6.73824 14.3162 6.72215 14.2833 6.71406C14.2504 6.70597 14.2161 6.70612 14.1832 6.71449C14.1504 6.72287 14.1202 6.73922 14.0951 6.7621C14.07 6.78498 14.0509 6.8137 14.0395 6.84574L13.7071 7.80461C13.5 8.40615 13.119 9.02055 12.5795 9.62466C12.5437 9.66322 12.5028 9.6735 12.4747 9.67607C12.4466 9.67865 12.4031 9.6735 12.3648 9.63752C12.329 9.60667 12.3111 9.56039 12.3136 9.51412C12.4082 7.96656 11.948 6.22106 10.9406 4.32131C10.1071 2.7429 8.94885 1.51154 7.5017 0.652927L6.44573 0.0282472C6.30766 -0.0540151 6.13124 0.0539541 6.13891 0.215908L6.19516 1.44984C6.23352 2.29303 6.13636 3.03853 5.90624 3.65807C5.62499 4.41643 5.22102 5.1208 4.70454 5.75319C4.34511 6.19269 3.93773 6.59021 3.49005 6.93828C2.41186 7.77161 1.53515 8.8394 0.925567 10.0617C0.31749 11.2946 0.000741888 12.6521 0 14.0283C0 15.2416 0.237784 16.4164 0.708238 17.5244C1.1625 18.5912 1.81805 19.5593 2.63863 20.3753C3.46704 21.1979 4.4284 21.8458 5.49971 22.2956C6.60937 22.7635 7.7855 23 8.99999 23C10.2145 23 11.3906 22.7635 12.5003 22.2982C13.5689 21.851 14.5407 21.1987 15.3613 20.3779C16.1898 19.5553 16.8392 18.5938 17.2917 17.527C17.7615 16.422 18.0025 15.2325 18 14.0308C18 12.7763 17.7443 11.5578 17.2355 10.4087Z" fill="#FFA439"/>
</svg>
