<svg width="159" height="122" viewBox="0 0 159 122" fill="none" xmlns="http://www.w3.org/2000/svg">
<path d="M80.8864 81.1447L80.8969 81.1531C82.2898 82.2781 84.4312 83.1217 87.5278 83.4778C91.3481 73.9254 100.707 67.1667 111.656 67.1667C125.997 67.1667 137.625 78.7586 137.625 93.0833C137.625 107.408 125.997 119 111.656 119C100.966 119 91.7934 112.539 87.7848 103.341C80.1264 102.902 73.6787 100.732 68.4919 96.5686L68.4903 96.5673C62.8319 92.0186 59.7356 85.9517 57.9093 79.6369C56.1025 73.3893 55.4806 66.6749 54.9265 60.693L54.9224 60.6494L54.9222 60.6465L54.91 60.5171C54.5675 56.8565 54.2481 53.4436 53.7371 50.3745C53.2177 47.255 52.5328 44.7125 51.5599 42.794L80.8864 81.1447ZM80.8864 81.1447C78.9037 79.5581 77.5069 76.8114 76.5257 72.7771C75.5507 68.7683 75.0995 64.004 74.6205 58.8055L74.6205 58.8047M80.8864 81.1447L74.6205 58.8047M74.6205 58.8047L74.6177 58.7745M74.6205 58.8047L74.6177 58.7745M74.6177 58.7745C74.0206 52.3128 73.3639 45.2069 71.2185 38.7917M74.6177 58.7745L71.2185 38.7917M71.2185 38.7917L106.025 38.7917C109.917 48.2171 119.198 54.8333 130.031 54.8333C144.372 54.8333 156 43.2414 156 28.9167C156 14.5919 144.372 3 130.031 3C119.198 3 109.917 9.6162 106.025 19.0417L52.9981 19.0417C49.0847 9.61966 39.8063 3 28.9688 2.99999C14.6281 2.99999 3 14.5919 3 28.9167C3 43.2414 14.6281 54.8333 28.9687 54.8333C38.4262 54.8333 46.7185 49.7888 51.2477 42.225C51.3537 42.4038 51.4575 42.5927 51.559 42.7922L71.2185 38.7917ZM131.625 28.9167C131.625 29.7742 130.907 30.5 130.031 30.5C129.155 30.5 128.437 29.7742 128.437 28.9167C128.437 28.0591 129.155 27.3333 130.031 27.3333C130.907 27.3333 131.625 28.0591 131.625 28.9167ZM27.375 28.9167C27.375 28.0591 28.0926 27.3333 28.9687 27.3333C29.8449 27.3333 30.5625 28.0591 30.5625 28.9167C30.5625 29.7742 29.8449 30.5 28.9687 30.5C28.0926 30.5 27.375 29.7742 27.375 28.9167ZM113.25 93.0833C113.25 93.9409 112.532 94.6667 111.656 94.6667C110.78 94.6667 110.062 93.9409 110.062 93.0833C110.062 92.2258 110.78 91.5 111.656 91.5C112.532 91.5 113.25 92.2258 113.25 93.0833Z" fill="#FFC839" stroke="black" stroke-width="6"/>
</svg>
